<?xml version="1.0" encoding="utf-8"?>
<!-- Generator: Adobe Illustrator 21.1.0, SVG Export Plug-In . SVG Version: 6.00 Build 0)  -->
<svg version="1.1" id="Layer_1" xmlns="http://www.w3.org/2000/svg" xmlns:xlink="http://www.w3.org/1999/xlink" x="0px" y="0px"
	 viewBox="0 0 1920 1080" style="enable-background:new 0 0 1920 1080;" xml:space="preserve">
<path d="M1014.6,411.1c-0.7,0.1-1.3,0.2-2,0.3c-2.1,2.2-4.5,4.5-7.3,6.8c-1.8,1.5-3.5,2.8-5.2,4.1c0.6,1.1,1.1,2.2,1.7,3.3
	c2.3-1.9,4.7-3.8,7-5.6c3,2,6,4,8.9,6.1c-0.2,4.3-0.9,29.7,5.9,31.4c1.1,0.3,3.2,0.2,5.1-0.9c2.9-1.7,3.7-5.2,3.7-7
	c0-0.3,0-1.4-0.5-1.6c-0.6-0.2-1.1,1.1-1.8,1.1c-1.7-0.1-2.4-10.8-2.6-14.6c-0.4-7.2-0.7-10.8-0.1-12.6c0.7-2.1,2.3-5.6,1-6.9
	c-0.1-0.1-0.4-0.4-0.9-0.4c-1.2-0.1-1.8,2-2.8,2.6C1023.6,417.8,1021,417,1014.6,411.1z"/>
<path d="M1008.3,431.8c-4.2,0-7.3,5.6-8.3,9.5c-1.2,4.7-0.2,11.2,4.4,14.8c1.9,1.4,3.9,2,5.2,2.3c4.5-4.3,9-8.5,13.5-12.8
	c0-0.9,0-1.7,0-2.6c-3.1,2.8-6.2,5.5-9.3,8.3c-1.4-0.7-3-1.8-4.1-3.7c-2.3-3.9-1.4-9.6,2.3-14.2
	C1011.1,432.6,1009.8,431.8,1008.3,431.8z"/>
<path d="M1019.3,436.4c-2.5-0.4-5.6-1.2-8.8-3.1c-1.8-1-5.7-3.3-8.6-7.8c-0.8-1.2-1.3-2.3-1.6-3.1c1.2-0.2,2.4-0.5,3.6-0.7
	c0.8,1.9,2.8,5.9,7.2,9.2c3.6,2.6,7.1,3.5,9.1,3.9C1019.8,435.4,1019.5,435.9,1019.3,436.4z"/>
<path d="M983.3,557.8c0,0,5.3-2.2,10.4-2.3c5.1-0.1,6.9,1.1,7.7,0.9c0.8-0.2,1.2-1.7,2-1.7s2.1,2,1,5c-1.1,2.9-2.1,4.8-3.2,4.8
	c-0.4,0-2.2-1.3-6.7-1.5c-5-0.2-11.1,0.1-11.1,0.1L983.3,557.8z"/>
<path d="M1005.8,549.9c0.5,0.8,2.2-0.7,3.4-2.4c1.5-2.2,2.6-3.9,2.9-5c-1.2-0.7-3.1-1.6-5.5-2.1c-3.2-0.7-5.8-0.4-8-0.1
	c-1.6,0.2-4.3,0.6-6.7,1.4c-2.5,0.8-4.3,3.2-4.3,5.9v43.9h9v-43.6c0-0.8,0.6-1.3,1.4-1.3C1000.2,546.8,1004.2,547.5,1005.8,549.9z"
	/>
<path d="M984.8,591.1c3.3,2.3,6.6,4.6,9.9,6.9c1.1-0.4,3.3-1.3,5.1-3.5c3-3.7,2.5-8.2,2.4-9c-0.8,0.2-1.7,0.5-2.5,0.7
	c-0.3,0.8-0.5,1.6-0.8,2.4c-2.8-1.5-5.5-3-8.3-4.5C988.7,586.5,986.8,588.8,984.8,591.1z"/>
<path d="M890.6,664.4c-1.1-0.5-1.8-1.3-1.7-2.1c0-0.7,0.6-1.1,0.9-1.4c1.2-1.1,2.5-0.9,3.4-1.3c1.8-0.8,2.2-3.7,2.5-6.1
	c0.7-7.5,1.1-11.2-0.5-16.2c-2-6.2-5.5-10.3-7.5-12.4c1.9-3,3.9-5.9,5.8-8.9c2.2,1.1,5.5,3.1,8.2,6.7c3.9,5.1,4.3,10.6,4.8,18.2
	c0.3,4.3,0.4,10.4-0.9,17.8c1.8,1,3.5,2.1,5.3,3.1c2.6-2.1,5.1-4.1,7.7-6.2c0.6,1.7,1.2,3.4,1.8,5.1c-4.3,2.1-8.6,4.2-12.9,6.3
	C901.9,666.1,896.2,665.2,890.6,664.4z"/>
<path d="M899.5,629.4c5.2-4.8,10.4-9.6,15.6-14.3c0.4-0.1,1.1-0.1,1.8,0c2.4,0.5,4.3,2.9,5.9,6.9c2.8,7.1,2.9,14.2,2.9,28.8
	c0,1.6,0,4.1,0,7.1c2.9,1.1,5.8,2.3,8.6,3.4c0.3-0.5,0.8-1.3,1.3-2.4c0.7-1.7,1.6-4.4,0.8-13.5c-0.7-7.8-1.8-10-2.6-11.4
	c-0.8-1.3-1.6-2.2-2.1-2.9c-2.9,1.7-5.7,3.3-8.6,5c0-0.9,0-1.9,0-2.8c4.4-3.2,8.8-6.5,13.2-9.7c1.8,0.6,4.6,1.9,6.7,4.7
	c1.6,2.1,2,5.2,2.7,11.2c0.8,6.9,0.8,12.5-0.9,17.4c-0.3,0.7-0.5,1.2-0.6,1.5c-1.8,3.4-5.2,4.4-8.6,6.3c-1.8,1-4.3,2.6-7,5.1
	c-4.6-2.9-9.1-5.9-13.7-8.8c0.8-3.5,1.5-7.5,1.7-12.1c0.4-11.1-2.2-20.1-4.5-25.8c-3.1,2.6-6.2,5.2-9.4,7.8
	C901.7,630.4,900.6,629.9,899.5,629.4z"/>
</svg>
