<?xml version="1.0" encoding="utf-8"?>
<!-- Generator: Adobe Illustrator 21.1.0, SVG Export Plug-In . SVG Version: 6.00 Build 0)  -->
<svg version="1.1" id="Layer_1" xmlns="http://www.w3.org/2000/svg" xmlns:xlink="http://www.w3.org/1999/xlink" x="0px" y="0px"
	 viewBox="0 0 1920 1080" style="enable-background:new 0 0 1920 1080;" xml:space="preserve">
<style type="text/css">
	.st0{fill:#FF0000;}
</style>
<path class="st0" d="M1092.7,542.8l-71.4,51.5c-9.8-12.9-16.9-23.1-55.4-38.8c-22.9-9.4-57.6-4.6-57.6-4.6V228
	c0,0,30.9,4.1,65.7,12.7c42.1,10.4,71.5,27.7,71.5,27.7v347c0,0,62.4,24.9,88.8,87.6c9.2,21.9-25.4,59.4-55.3,61.1
	c-30,1.7-166-72.6-166-72.6s-149.9,91.1-159.1,122.2s-7.9,52.3,6.9,54.2c18.4,2.3,86.5-58.8,86.5-58.8s111.3,26.5,111.8,26.5
	s114.1,30,114.1,30s32.3-29.4,73.8-60c41.5-30.6,72.1-28.8,85.3-46.1c13.3-17.3,17.9-46.1,17.3-78.4c-0.6-32.3-50.7-89.4-56.5-111.8
	s-19.6-83-21.9-131.4s0-219.1,0-219.1S1006.8,134.1,973.9,92h-54.2c0,0-17.7,27-58.7,58c-35.4,26.8-75,46.9-75,46.9v418.5
	c0,0,69,20.7,98.9,39.9c35.3,22.7,52.7,38.9,52.7,38.9l183.8-134L1092.7,542.8z"/>
<polygon class="st0" points="1061.5,231.5 1139.9,122 1247.1,122 1247.1,277.6 1153.8,264.9 "/>
</svg>
