<?xml version="1.0" encoding="utf-8"?>
<!-- Generator: Adobe Illustrator 21.1.0, SVG Export Plug-In . SVG Version: 6.00 Build 0)  -->
<svg version="1.1" id="Layer_1" xmlns="http://www.w3.org/2000/svg" xmlns:xlink="http://www.w3.org/1999/xlink" x="0px" y="0px"
	 viewBox="0 0 1920 1080" style="enable-background:new 0 0 1920 1080;" xml:space="preserve">
<path d="M853.3,240.8c4.7,11.4,7.9,20.6,9.6,25.7c52,155.5,21.7,394.7,21.7,436.5c0,3.9,0.3,12.1,5.6,16c4.4,3.2,10.3,2.1,12.8,1.6
	c14.6-2.8,17-15.6,31.3-19.3c6.5-1.7,12-0.5,14.4,0c17.9,3.7,21.6,20,34.5,25.7c7.8,3.4,21.4,3.9,45.7-12.8
	c-11-8.2-25-21.4-34.5-40.9c-8.4-17.4-9.9-33-10.4-40.1c-9.4-119.9-11.2-317-11.2-317c-0.2-25.7-1-61.5-23.3-96.3
	c-14.5-22.7-33-36.8-45.7-44.9C887,196.9,870.1,218.9,853.3,240.8z"/>
<path d="M924.7,325.1c40.7-51.4,81.3-102.7,122-154.1c14.1,10.2,28.3,20.3,42.5,30.5c18.5,13.2,37,26.3,55.4,39.3
	c11.6,33.2,24.9,83.6,25.7,146c0.7,60.5-10.6,109.8-20.9,142.8c-41.5,26.7-82.9,53.5-124.4,80.2c-57.8-17.7-115.5-35.3-173.3-53
	c13.8-11.3,57.9-44.5,121.2-44.1c34.1,0.2,61,10.1,77,17.7c6.4-1.6,12.8-3.2,19.3-4.8c3.6-17.5,8.3-44.2,11.2-77
	c5.3-59,8.1-94.4-7.2-133.2c-6.2-15.8-19.1-41.4-47.3-67.4c-28.9,34.8-57.8,69.5-86.7,104.3C934.3,343.3,929.5,334.2,924.7,325.1z"
	/>
</svg>
