<?xml version="1.0" encoding="utf-8"?>
<!-- Generator: Adobe Illustrator 21.1.0, SVG Export Plug-In . SVG Version: 6.00 Build 0)  -->
<svg version="1.1" id="Layer_1" xmlns="http://www.w3.org/2000/svg" xmlns:xlink="http://www.w3.org/1999/xlink" x="0px" y="0px"
	 viewBox="0 0 1920 1080" style="enable-background:new 0 0 1920 1080;" xml:space="preserve">
<style type="text/css">
	.st0{fill:#FFFFFF;}
	.st1{fill:none;stroke:#FFFFFF;stroke-width:0.25;stroke-miterlimit:10;}
</style>
<image style="overflow:visible;enable-background:new    ;" width="2048" height="1365" xlink:href="98B89565.jpeg"  transform="matrix(1 0 0 1 -64 -142)">
</image>
<path class="st0" d="M922,897c0,8.7,0,17.3,0,26c2,0,4.8,0.1,8,1c3,0.8,5.3,2,7,3c1.4-1.3,3.5-3.1,6.5-4.5c2.3-1.1,4.4-1.7,6-2
	c-0.3-9.3-0.7-18.7-1-28c-8.3-4-16.7-8-25-12c-1.3,2.3-2.7,4.7-4,7c6.7,3.3,13.3,6.7,20,10c0.3,7,0.7,14,1,21c-0.9,0.2-2.8,0.6-5,0
	c-1.9-0.5-3.3-1.4-4-2c0-8,0-16,0-24c-1.3,0.7-2.6,1.3-4,2C925.6,895.4,923.8,896.2,922,897z"/>
<path class="st0" d="M1571.9,892.1c-3.9-2.1-6.4-4.9-7.8-6.7c-0.9,1.4-2.5,3.5-4.9,5.3c-3,2.3-6,3.3-7.8,3.8c0,7.3,0,14.7,0,22
	c0,0.1,0.1,0.9-0.5,1.5s-1.4,0.5-1.5,0.5c0,0.5,0,1.1,0,1.6c1.8-0.2,5.2-0.4,9.1,1.2c2.5,1,4.4,2.4,5.5,3.5c1.5-0.9,3.1-1.9,4.9-2.8
	c2.8-1.4,5.4-2.4,7.8-3.3c0-8.3,0-16.6,0-24.9C1575.4,893.6,1573.7,893,1571.9,892.1z M1568.5,917.1c0,0.1-2.2-1.1-4-1.8
	c-1-0.4-2.5-0.9-4.4-1.3c0-6.2,0-12.6,0-18.8c0.6-0.4,1.3-0.9,1.9-1.3c2,1.7,4.2,3.6,6.3,5.4C1568.3,905.5,1568.5,911,1568.5,917.1
	L1568.5,917.1z"/>
<path class="st1" d="M1657.6,894.1c1.6-0.3,4.1-0.9,6.6-2.6c3.8-2.5,5.6-5.8,6.3-7.4c1.2,1.2,3.8,3.7,8.1,4.9c3.6,1,6.6,0.7,8.2,0.4
	c0.3,0.4,0.6,0.7,1,1.1c-0.6,0.7-1.3,1.4-1.9,2.2c0.2,12.1,0.3,24.2,0.5,36.3c0.5,0.9,1,1.8,1.4,2.6c-0.2,0.5-0.4,1.1-0.6,1.6
	c-1.5-1.2-2.5-1.3-3.2-1.1c-1.7,0.4-2,2.4-3.8,2.9c-1.1,0.3-2.3-0.2-3-0.7c0-12.7,0-25.5,0-38.2c-1.2-0.8-2.9-1.7-5-2.4
	c-1-0.3-2-0.5-2.8-0.6c-0.4,0.4-0.8,0.8-1.2,1.2c0,6.6,0,13.2,0,19.8c0,1.2,1.2,3.2,3.1,3.7c2.5,0.6,6.1-1.1,7.9-6c0,1,0,3,0,4
	c-4.4,3.5-7.6,6.3-11.4,10c-0.5-0.8-1.7-2.4-3.9-3.4c-2-1-3.9-1.1-4.8-1c0-8,0-15.9,0-23.9C1659.2,895.4,1657.6,894.1,1657.6,894.1z
	"/>
<path class="st1" d="M356.8,876.8c2.3,0.6,6.3,1.9,10.1,5.1c5.5,4.6,7.3,10.3,8.2,13.3c2.5,8.3,1,15.4,0,18.7
	c-2.7,1.7-5.4,3.5-8.1,5.4c-4.2,2.9-8.2,5.7-12,8.6c-2.8-1.2-6.5-2.5-11.1-3.3c-5.2-0.9-9.6-0.8-13-0.5c0-0.3,0.1-2.1,1.5-3.3
	c0.9-0.8,1.9-0.9,2.3-0.9c0-9.7,0-19.5,0-29.2c0-0.7-1.2-3-4-3.3c-2.2-0.2-4.3,0.8-6,2.1c-0.9,0.7-1.5,1.4-2,1.9
	c-0.7-0.5-1.4-0.9-2-1.4c4.2-3.9,8.4-7.7,12.6-11.6c3.7,2.6,7.4,5.2,11.1,7.8c0,10.1,0,20.2,0,30.3c4,0.1,8.6,0.6,13.6,1.7
	c1.7,0.4,3.3,0.8,4.8,1.3c0.8-1.2,1.9-3,2.7-5.3c3.3-9-0.2-17.1-0.8-18.4c-1.7-3.9-4.1-9.4-9.6-10.6c-6.7-1.5-12.3,4.5-12.7,4.9
	c-0.2-0.4-0.8-1.4-1-1.7L356.8,876.8z"/>
<path class="st1" d="M338.6,900c-1.4-2.3-4-3.8-6.7-3.7c-3.8,0.1-5.9,3.1-6.1,3.4c0.9-0.2,3.5-0.7,6.4,0.5c2.5,1.1,3.9,2.9,4.5,3.6
	C337.4,902.6,338,901.3,338.6,900z"/>
<path class="st1" d="M337.7,906.2c-0.7-0.3-2.9-1.2-5.6-0.5c-2.4,0.6-3.8,2.1-4.3,2.7c0.6-0.2,2.3-0.6,4.2-0.1
	c2.6,0.7,3.9,2.7,4.2,3.2C336.7,909.8,337.2,908,337.7,906.2z"/>
<rect x="348.7" y="884.5" class="st1" width="3.6" height="35.8"/>
<rect x="348.4" y="902.1" transform="matrix(0.8393 -0.5437 0.5437 0.8393 -433.8158 340.3237)" class="st1" width="20.6" height="3.6"/>
<rect x="348.7" y="895.7" transform="matrix(0.8393 -0.5437 0.5437 0.8393 -430.2868 339.4615)" class="st1" width="20.6" height="3.6"/>
<g>
	<path class="st0" d="M344.6,1028.6c-0.1,0-0.3,0-0.4-0.1c-2.2-0.7-3.8-2.1-4.4-3.7c-0.8-2.2,0.3-4.2,0.6-4.9
		c3.7-7.6,14.6-16.9,15-17.3c8.7-7.5,12.4-11.3,13-15.5c0.2-1.1,0.5-3.6-0.8-4.7c-0.5-0.5-1.2-0.7-2.2-0.7c-0.7,0-1.2-0.6-1.2-1.3
		c0-0.7,0.6-1.2,1.3-1.2c0,0,0,0,0,0c1.5,0,2.9,0.5,3.8,1.3c2.3,2,1.8,5.6,1.6,7c-0.8,5.5-5.8,10.1-13.9,17
		c-0.1,0.1-10.9,9.4-14.4,16.5c-0.4,0.8-0.8,1.9-0.5,3c0.5,1.3,1.9,1.9,2.8,2.2c0.7,0.2,1,0.9,0.8,1.6
		C345.6,1028.3,345.1,1028.6,344.6,1028.6z"/>
</g>
<path class="st0" d="M342.4,1006.9c0-5.2,0-10.5,0.1-15.7c1.1,0.1,3.6,0.1,6.2-1.3c3.9-2.1,5.2-5.8,5.5-6.6c0.4,0,0.8-0.1,1.2-0.1
	c1.5,1,3.7,2.2,6.8,3c3,0.8,5.6,0.8,7.4,0.7c-0.6,1.4-1.4,2.9-2.3,4.4c-1.3,2.1-2.6,3.9-3.9,5.4c-0.3-0.6-0.9-1.5-1.9-2.2
	c-1.2-0.9-2.3-1.1-4.1-1.4c-2.4-0.5-4.5-0.8-6-1.1c0,2.8,0,5.7,0,8.5c1.4,1.3,2.8,2.6,4.2,3.9c-1.8,2-3.6,4-5.4,6.1
	c-0.8-0.7-1.9-1.4-3.2-2.1C345.2,1007.5,343.6,1007.1,342.4,1006.9z"/>
<path class="st0" d="M360.3,1014.9c0-2.9,0-5.8,0-8.6c-1.4-1.1-2.8-2.3-4.2-3.4c2.2-2,4.4-4,6.6-6c1.2,1,2.6,2.1,4.3,3.1
	c0.9,0.6,1.8,1.1,2.7,1.5c0,5.1,0,10.2,0,15.2c-2.4-0.4-4.1,0.1-4.9,0.4c-2,0.8-3.4,2.3-5.2,4.5c-0.9,1-1.5,1.9-1.9,2.5
	c-0.7,0-1.5,0-2.2,0c-0.9-0.9-2.7-2.4-5.4-3.2c-3.9-1.2-7.2-0.1-8.3,0.3c2.2-3.5,4.4-6.9,6.6-10.4c1.6,1.4,3.1,2.4,4.2,3.1
	c3.3,2,4.8,1.9,5.2,1.9C358.9,1015.6,359.7,1015.2,360.3,1014.9z"/>
</svg>
