<?xml version="1.0" encoding="UTF-8" standalone="no"?>
<svg
   xmlns:dc="http://purl.org/dc/elements/1.1/"
   xmlns:cc="http://creativecommons.org/ns#"
   xmlns:rdf="http://www.w3.org/1999/02/22-rdf-syntax-ns#"
   xmlns:svg="http://www.w3.org/2000/svg"
   xmlns="http://www.w3.org/2000/svg"
   xml:space="preserve"
   style="enable-background:new 0 0 1920 1080;"
   viewBox="0 0 1920 1080"
   y="0px"
   x="0px"
   id="Layer_1"
   version="1.1"><metadata
     id="metadata15"><rdf:RDF><cc:Work
         rdf:about=""><dc:format>image/svg+xml</dc:format><dc:type
           rdf:resource="http://purl.org/dc/dcmitype/StillImage" /><dc:title></dc:title></cc:Work></rdf:RDF></metadata><defs
     id="defs13" /><style
     id="style2"
     type="text/css">
	.st0{fill:#FFFFFF;}
</style><path
     style="fill:#0000ff"
     id="path6"
     d="M294.4,404.7c78.4,70.7,170.2,12.1,216.8-37.3c47.6-50.3,115.3-133.7,115.3-133.7s74.1,4.6,128.2,75.1  s80.6,124.5,80.6,124.5v555L973.5,1101l78-53l-0.1-530.4c0,0-26.5-48.5-91.5-45.8S747.5,634.7,747.5,634.7l8.4-229.1  c67.5,13.4,130.5,30,165.5,13.1c106.4-51.3,173.9-150.1,173.9-150.1s53.1,3.7,119,49.4s120.8,108,120.8,108s-57.7,94.3-56.8,142.8  s0,556.6,0,556.6s-83.3,23.8-155.6,65.9c-72.3,42.1-175.9,111.7-175.9,111.7l-331.2-263.7c0,0,0-179.6,0-291.1  c0-77.2,0-225.2,0-225.2s-36.6-65.9-89.7-65.9S319,618.3,319,618.3L294.4,404.7z"
     class="st0" /><path
     style="fill:#0000ff"
     id="path8"
     d="M69.7,373c32.4,64.2,52.7,106.1,85.2,170.4c0,198.1,0,437.6,0,635.7c76.5,95.2,150.2,105.7,174.4,107.5  c78.8,5.9,142.7-41.8,259.7-129c56.4-42,99.6-80.9,128-108c-33.2-22.4-66.5-44.8-99.7-67.2c-12.8,16.8-32.4,40.7-58.8,66.9  c-30.4,30.2-46,45.4-64.9,50.7c-52,14.5-107-38.1-119.7-50.7c0-192,0-418.5,0-610.5C314.4,373.2,267.1,323,207.6,257.4  C161.6,295.9,115.7,334.5,69.7,373z"
     class="st0" /></svg>