<?xml version="1.0" encoding="utf-8"?>
<!-- Generator: Adobe Illustrator 21.1.0, SVG Export Plug-In . SVG Version: 6.00 Build 0)  -->
<svg version="1.1" id="Layer_1" xmlns="http://www.w3.org/2000/svg" xmlns:xlink="http://www.w3.org/1999/xlink" x="0px" y="0px"
	 width="1920px" height="1080px" viewBox="0 0 1920 1080" style="enable-background:new 0 0 1920 1080;" xml:space="preserve">
<style type="text/css">
	.st0{fill:#FF0000;}
</style>
<path class="st0" d="M629,180c6.5,3.6,16.8,9.1,29.8,14.9C774.1,246.7,863,220.2,975,222.3c95.7,1.8,198.9,3.6,274,71.2
	c71.2,64,110.5,179.9,79.1,270.1c-16.8,48-76.6,96.6-195.7,191.8c-44.2,35.3-82,63.5-108.8,83c-25.9-14.9-66.7-35.1-119.8-48.5
	c-49.3-12.5-120.1-30.3-199.7-3.1c-25.1,8.6-76.4,30.3-124.5,86.1c-14.1-15.4-28.2-30.8-42.3-46.2c17-18.3,33.9-36.5,50.9-54.8
	c37.5-40.3,56.3-60.8,64.1-76.5c18.5-37.2,12.5-71.4,10.3-102.1c-3.4-47.8,0.1-117.1,32.6-207.6c50.7-35.2,101.4-70.4,152.1-105.6
	c-15.2,22.2-35.5,57.5-46.2,104.1c-16.6,72,3.8,109.7-12.5,174.6c-7.4,29.4-24,70.7-65.8,115.9c37.6-12.7,93.3-26.5,161.3-25.8
	c100.8,0.9,177.9,33,219.2,54c14.8-3.2,61.4-15.4,94-58.7c39.2-52.1,29.8-111.7,27.4-126.8c-19.3-122.4-161.8-175.9-169.1-178.5
	c-47.3-17-101.8-12.6-210.6-3.9c-116.6,9.3-181.2,28.8-250.5-9.4c-23.5-13-40-28.4-50.1-39.1C572.6,251,600.8,215.5,629,180z"/>
<path class="st0" d="M720.6,559.7c-20.2-44.3-65.2-70-108.9-63.8c-50.8,7.1-74.7,53.5-76.8,57.8c1.7,8.8,3.4,17.6,5.1,26.5
	c8.7-4.2,36.6-16.3,70.8-8.1c50,12,70.6,57.3,73,62.8C696,609.8,708.3,584.8,720.6,559.7z"/>
<rect x="844.2" y="269.3" class="st0" width="65.1" height="465.1"/>
<rect x="819.4" y="420.7" transform="matrix(0.7714 -0.6363 0.6363 0.7714 -47.9778 772.9314)" class="st0" width="465.1" height="65.1"/>
<rect x="844.3" y="523.5" transform="matrix(0.7714 -0.6363 0.6363 0.7714 -107.6721 812.2576)" class="st0" width="465.1" height="65.1"/>
</svg>
