<?xml version="1.0" encoding="UTF-8" standalone="no"?>
<svg
   xmlns:dc="http://purl.org/dc/elements/1.1/"
   xmlns:cc="http://creativecommons.org/ns#"
   xmlns:rdf="http://www.w3.org/1999/02/22-rdf-syntax-ns#"
   xmlns:svg="http://www.w3.org/2000/svg"
   xmlns="http://www.w3.org/2000/svg"
   xmlns:sodipodi="http://sodipodi.sourceforge.net/DTD/sodipodi-0.dtd"
   xmlns:inkscape="http://www.inkscape.org/namespaces/inkscape"
   version="1.1"
   viewBox="0 0 1012 1000"
   id="svg948"
   sodipodi:docname="G_KJV1611.svg"
   inkscape:version="0.92.4 5da689c313, 2019-01-14">
  <metadata
     id="metadata954">
    <rdf:RDF>
      <cc:Work
         rdf:about="">
        <dc:format>image/svg+xml</dc:format>
        <dc:type
           rdf:resource="http://purl.org/dc/dcmitype/StillImage" />
      </cc:Work>
    </rdf:RDF>
  </metadata>
  <defs
     id="defs952">
    <inkscape:path-effect
       effect="spiro"
       id="path-effect821-6"
       is_visible="true" />
  </defs>
  <sodipodi:namedview
     pagecolor="#ffffff"
     bordercolor="#666666"
     borderopacity="1"
     objecttolerance="10"
     gridtolerance="10"
     guidetolerance="10"
     inkscape:pageopacity="0"
     inkscape:pageshadow="2"
     inkscape:window-width="3840"
     inkscape:window-height="2037"
     id="namedview950"
     showgrid="false"
     inkscape:zoom="0.944"
     inkscape:cx="217.23195"
     inkscape:cy="673.24053"
     inkscape:window-x="0"
     inkscape:window-y="0"
     inkscape:window-maximized="1"
     inkscape:current-layer="svg948" />
  <path
     transform="matrix(7.5451506,0,0,7.5451506,-108.61432,-451.80039)"
     style="fill:#ff0000;stroke:none;stroke-width:0.1;stroke-linecap:butt;stroke-linejoin:miter;stroke-miterlimit:4;stroke-dasharray:none;stroke-opacity:1"
     d="m 92.289073,60.488113 c -16.56198,0.841915 -31.82435,9.072598 -45.555628,18.370985 -5.928791,4.014789 -11.727249,8.291263 -16.727736,13.416127 -5.000487,5.124863 -9.201002,11.152075 -11.487658,17.937375 -3.131108,9.29108 -2.466342,19.71014 1.347696,28.74237 3.814038,9.03223 10.668734,16.66419 18.971305,21.87911 12.345485,7.75431 27.58127,10.12303 42.06534,8.46411 14.484069,-1.65892 28.308798,-7.1153 41.150398,-14.01701 7.45252,-4.00535 14.8688,-8.73247 19.52419,-15.79719 4.02855,-6.11346 5.67595,-13.72229 4.69557,-20.9778 -0.98038,-7.25552 -4.55024,-14.10837 -9.82315,-19.187738 -5.76704,-5.555364 -13.55148,-8.969593 -21.54464,-9.449406 -4.27149,3.656987 -9.19979,6.544504 -14.47823,8.482877 -4.266929,1.566922 -8.76045,2.515297 -13.296664,2.806327 l -1.603617,7.08265 c 3.757992,-1.01073 7.671628,-1.44055 11.559407,-1.26953 4.991614,0.21957 9.962724,1.44437 14.375994,3.7869 4.41328,2.34253 8.25252,5.8213 10.81416,10.11111 1.67383,2.80305 2.7999,5.95493 3.09458,9.20639 0.29468,3.25145 -0.26169,6.6009 -1.75823,9.50248 -2.12558,4.12122 -5.97316,7.09512 -10.02261,9.35443 -11.74773,6.5544 -26.279576,7.98963 -39.021352,3.67496 -10.294003,-3.4858 -19.314983,-10.64255 -24.989701,-19.91158 -3.083498,-5.03655 -5.209202,-10.74164 -5.545842,-16.63753 -0.385388,-6.74966 1.629041,-13.57355 5.412208,-19.176589 3.272667,-4.846967 7.802465,-8.770208 12.828937,-11.759859 10.004811,-5.950673 22.055797,-8.239085 33.609143,-6.815373 6.954027,0.85694 13.744647,3.021735 19.911577,6.347651 6.28497,-1.954469 12.35709,-4.592626 18.07471,-7.852939 3.50894,-2.000873 6.88459,-4.235451 10.09717,-6.684017 l -12.93751,-3.102833 c -0.56989,0.73451 -1.37796,1.281146 -2.27179,1.5368 -1.36908,0.391587 -2.83413,0.101615 -4.2095,-0.26727 -5.8831,-1.57789 -11.31249,-4.550909 -17.17207,-6.214016 -4.88608,-1.386802 -10.013934,-1.83983 -15.086457,-1.581972 z"
     id="path819-7"
     inkscape:connector-curvature="0"
     inkscape:path-effect="#path-effect821-6"
     inkscape:original-d="M 92.289073,60.488113 C 76.792314,66.566965 62.230734,72.779717 46.733445,78.859098 31.236157,84.93848 28.881163,97.266662 18.518051,110.2126 c -10.3631111,12.94595 13.011728,35.97463 20.319001,50.62148 7.307276,14.64684 67.215008,-7.97852 83.215738,-5.5529 16.00073,2.42561 1.79107,-7.32449 19.52419,-15.79719 17.73311,-8.4727 -3.93039,-25.70822 -5.12758,-40.165538 -1.19719,-14.457326 -21.54464,-9.449406 -21.54464,-9.449406 0,0 -11.23323,6.32316 -14.47823,8.482877 -3.245004,2.159717 -13.296664,2.806327 -13.296664,2.806327 l -1.603617,7.08265 c 0,0 7.706536,-0.84662 11.559407,-1.26953 3.852874,-0.42292 16.793704,9.26508 25.190154,13.89801 8.39645,4.63293 0.89116,12.47231 1.33635,18.70887 0.44518,6.23655 -6.68148,6.23602 -10.02261,9.35443 -3.34113,3.11841 -26.01397,2.44971 -39.021352,3.67496 -13.007381,1.22525 -16.659536,-13.27465 -24.989701,-19.91158 -8.330164,-6.63693 -3.696963,-11.09195 -5.545842,-16.63753 -1.848879,-5.54558 3.608403,-12.78466 5.412208,-19.176589 1.803804,-6.391932 8.552889,-7.840171 12.828937,-11.759859 4.276048,-3.919689 22.40636,-4.543847 33.609143,-6.815373 11.202787,-2.271527 19.911577,6.347651 19.911577,6.347651 0,0 13.59307,-5.587775 18.07471,-7.852939 4.98485,-2.519501 10.09717,-6.684017 10.09717,-6.684017 l -12.93751,-3.102833 c 0,0 -1.51427,1.024269 -2.27179,1.5368 -0.75753,0.512531 -2.80607,-0.178444 -4.2095,-0.26727 -1.40343,-0.08882 -12.87851,-5.463703 -17.17207,-6.214016 -4.29356,-0.750313 0.41031,-7.660824 -15.086457,-1.581972 z"
     sodipodi:nodetypes="ssssssscscccccssssssscscccccs" />
  <circle
     style="opacity:1;fill:#ff0000;fill-opacity:1;stroke:none;stroke-width:0.86075407;stroke-linecap:round;stroke-linejoin:miter;stroke-miterlimit:4;stroke-dasharray:none;stroke-dashoffset:0;stroke-opacity:1;paint-order:normal"
     id="path827-5"
     cx="934.43671"
     cy="37.988537"
     r="58.257008" />
  <rect
     style="opacity:1;fill:#ff0000;fill-opacity:1;stroke:none;stroke-width:0.77211738;stroke-linecap:round;stroke-linejoin:miter;stroke-miterlimit:4;stroke-dasharray:none;stroke-dashoffset:0;stroke-opacity:1;paint-order:normal"
     id="rect831-35"
     width="74.737267"
     height="618.36047"
     x="498.76648"
     y="126.67296" />
  <rect
     style="opacity:1;fill:#ff0000;fill-opacity:1;stroke:none;stroke-width:0.83473951;stroke-linecap:round;stroke-linejoin:miter;stroke-miterlimit:4;stroke-dasharray:none;stroke-dashoffset:0;stroke-opacity:1;paint-order:normal"
     id="rect831-3-6"
     width="74.737267"
     height="722.73163"
     x="366.78525"
     y="-22.114447" />
</svg>
