<?xml version="1.0" encoding="utf-8"?>
<!-- Generator: Adobe Illustrator 21.1.0, SVG Export Plug-In . SVG Version: 6.00 Build 0)  -->
<svg version="1.1" id="Layer_1" xmlns="http://www.w3.org/2000/svg" xmlns:xlink="http://www.w3.org/1999/xlink" x="0px" y="0px"
	 viewBox="0 0 1920 1080" style="enable-background:new 0 0 1920 1080;" xml:space="preserve">
<style type="text/css">
	.st0{fill:#FF0000;}
</style>
<path class="st0" d="M1386,542.1c-3.4-174-204.1-242.4-346.5-220.7c26.5-37.4,53.1-74.8,79.6-112.1c-91.2-65.8-185.5-69-274.2-5.9
	c-59.6,42.4-146.3,106.5-95.1,187c-75.7,43.1-151.3,62.1-120.5,168c22.7,78.4,92.6,115.4,169.4,122.3
	c73.1,6.5,107.6-13.2,172.1-40.8c101.2-43.4,115.7,108.8,24.9,114.8c-46.8,3.1-98-29.4-145-33.9c-54.5-5.3-108.7,6.9-158.3,28.8
	c-40.3,17.8-190.2,122.8-115.4,182.6c31.3,25,42.2-16.6,64.6-34.9c30.8-25.2,78.7-38.6,116.9-47.3c86.2-19.6,166.2,37.6,251.5,50.7
	c109.6,16.8,157.4-7.7,245.7-73C1356.9,752.9,1388.5,668,1386,542.1z M929.7,261.3c23,2.2,51.1,51.5,62.6,68
	c-29.9,5-107.7,24.2-114.5-24.6C873.7,276.7,904.1,258.8,929.7,261.3z M1270.9,713.5c-9.5,33-69.3,85.2-100.6,93
	c-35.5,8.9-63.4-12.4-91.8-34c50.1-50.5,161.9-146.8,103.3-224.1c-110.6-145.8-293,71.6-409.3-42.3c-20.4-20-35.4-58.7-2.8-79.7
	c20.5-13.2,27.4,1.4,54.3,9.7c39,12,57.7,16.3,98.7,18.1c43.9,1.9,86.4-8.7,129.6-13.9C1214.7,420.9,1320,543,1270.9,713.5z"/>
</svg>
