<?xml version="1.0" encoding="UTF-8" standalone="no"?>
<svg
   xmlns:dc="http://purl.org/dc/elements/1.1/"
   xmlns:cc="http://creativecommons.org/ns#"
   xmlns:rdf="http://www.w3.org/1999/02/22-rdf-syntax-ns#"
   xmlns:svg="http://www.w3.org/2000/svg"
   xmlns="http://www.w3.org/2000/svg"
   xmlns:sodipodi="http://sodipodi.sourceforge.net/DTD/sodipodi-0.dtd"
   xmlns:inkscape="http://www.inkscape.org/namespaces/inkscape"
   version="1.1"
   viewBox="0 0 1012 1000"
   id="svg916"
   sodipodi:docname="S_KJV1611.svg"
   inkscape:version="0.92.4 5da689c313, 2019-01-14">
  <metadata
     id="metadata922">
    <rdf:RDF>
      <cc:Work
         rdf:about="">
        <dc:format>image/svg+xml</dc:format>
        <dc:type
           rdf:resource="http://purl.org/dc/dcmitype/StillImage" />
      </cc:Work>
    </rdf:RDF>
  </metadata>
  <defs
     id="defs920">
    <inkscape:path-effect
       effect="spiro"
       id="path-effect1473"
       is_visible="true" />
    <inkscape:path-effect
       effect="spiro"
       id="path-effect1469"
       is_visible="true" />
  </defs>
  <sodipodi:namedview
     pagecolor="#ffffff"
     bordercolor="#666666"
     borderopacity="1"
     objecttolerance="10"
     gridtolerance="10"
     guidetolerance="10"
     inkscape:pageopacity="0"
     inkscape:pageshadow="2"
     inkscape:window-width="3840"
     inkscape:window-height="2037"
     id="namedview918"
     showgrid="false"
     inkscape:zoom="1.888"
     inkscape:cx="687.06908"
     inkscape:cy="576.09522"
     inkscape:window-x="0"
     inkscape:window-y="0"
     inkscape:window-maximized="1"
     inkscape:current-layer="svg916" />
  <path
     style="fill:#ff0000;stroke:none;stroke-width:2.5999999;stroke-linecap:butt;stroke-linejoin:miter;stroke-miterlimit:4;stroke-dasharray:none;stroke-opacity:1"
     d="m 19,787 c 22.723604,-47.11888 56.364189,-88.93137 97.52542,-121.2161 75.20081,-58.98361 173.5962,-84.38364 269.0678,-79.97882 74.18468,3.42269 146.5103,23.7288 217.16102,46.61017 36.22554,11.73222 72.22103,24.177 108.58051,35.48729 11.57827,3.60163 23.36545,7.11686 35.48729,7.41526 13.51957,0.3328 26.94382,-3.40126 39.04358,-9.44159 12.09975,-6.04032 22.95558,-14.33132 32.99031,-23.3974 17.07059,-15.42276 32.06436,-33.36878 42.63231,-53.80367 10.56795,-20.43489 16.59534,-43.44383 15.63041,-66.42938 -1.50869,-35.93814 -19.64363,-69.03765 -40.25424,-98.51695 -20.71207,-29.62441 -44.69485,-57.44133 -74.15254,-78.38983 -24.28626,-17.2709 -52.45982,-29.72179 -82.09746,-32.83898 -23.21281,-2.44145 -46.70228,0.85482 -69.3856,6.35593 -25.24349,6.122 -49.94165,14.99531 -75.74152,18.00848 -24.66293,2.88039 -49.64966,0.31297 -74.15254,-3.70763 -24.51144,-4.022 -48.88602,-9.52909 -72.0339,-18.53814 -46.70466,-18.17725 -87.51716,-50.61406 -117.05509,-91.10169 -10.01575,-13.72859 -19.02753,-29.12231 -20.12712,-46.08051 -0.48004,-7.40339 0.6164,-14.97184 3.70763,-21.7161 4.59625,-10.02783 13.29499,-17.66556 22.77543,-23.30509 11.01024,-6.54954 23.22073,-10.75493 34.95762,-15.88983 C 335.0877,107.10673 355.06398,94.53683 375,82.097456 387.75786,74.137003 400.55469,66.197792 412.60593,57.203388 429.82337,44.353213 445.42746,29.417017 462.92373,16.949151 473.00629,9.7643061 483.84526,3.3547531 495.76271,-1.5829081e-6 505.90053,-2.8537908 516.7463,-3.4088392 527.01271,-1.0593236 c 10.74857,2.4598589 20.51256,7.9579021 30.19068,13.2415256 24.40064,13.321167 49.31828,25.695748 74.6822,37.076271 C 649.06073,56.964778 666.44035,64.215354 684,71 l -96,141 c -10.5509,-9.37806 -21.2237,-18.61896 -32.01482,-27.71958 -20.05712,-16.91504 -41.03625,-33.64021 -65.72947,-42.50881 -16.8144,-6.03891 -35.46618,-8.17382 -52.62103,-3.18347 -10.31377,3.00028 -20.06086,8.70019 -26.59141,17.22823 -8.17231,10.67196 -10.61232,25.39401 -6.66958,38.24439 3.94275,12.85037 14.0565,23.57372 26.51951,28.60866 12.84508,5.18929 27.25611,4.4632 41.01069,2.80896 68.29607,-8.21387 133.00245,-37.07904 201.49547,-43.44512 47.4237,-4.40779 95.94402,2.30621 140.07306,20.22445 39.69661,16.11849 75.75716,41.29399 104.11848,73.40727 34.44808,39.00526 57.1171,87.72174 68.16389,138.57495 11.57046,53.26388 10.5909,109.4186 -4.49432,161.79562 -13.85635,48.11029 -39.89419,93.14741 -77.15254,126.59009 -32.26603,28.96163 -71.6836,48.44212 -108.6128,71.16011 -24.13318,14.84617 -47.48619,31.2542 -73.40727,42.69607 -8.77952,3.87538 -18.12983,7.21408 -27.71499,6.74149 -7.77656,-0.38342 -15.18486,-3.24926 -22.47162,-5.99244 C 619.50351,797.50517 565.49923,782.40631 512.3528,764.79711 455.79694,746.05825 399.85485,724.37858 341.20369,713.90233 282.55253,703.42608 219.81963,704.9309 166.28994,731.08969 124.79495,751.36738 90.5752,786.16903 71,828 Z"
     id="path1467"
     inkscape:connector-curvature="0"
     inkscape:path-effect="#path-effect1469"
     inkscape:original-d="m 19,787 c 0,0 65.017949,-80.81173 97.52542,-121.2161 32.50748,-40.40437 179.37954,-53.32021 269.0678,-79.97882 89.68827,-26.6586 144.77501,31.07245 217.16102,46.61017 72.386,15.53773 72.388,23.6572 108.58051,35.48729 36.1925,11.8301 23.65919,4.9425 35.48729,7.41526 11.82809,2.47275 48.02359,-21.89366 72.03389,-32.83899 24.0103,-10.94532 38.84281,-80.15636 58.26272,-120.23305 19.4199,-40.07668 -26.83516,-65.67896 -40.25424,-98.51695 -13.41908,-32.83798 -49.43403,-52.26089 -74.15254,-78.38983 -24.71851,-26.12894 -54.73064,-21.89365 -82.09746,-32.83898 -27.36682,-10.94533 -46.25606,4.23629 -69.3856,6.35593 -23.12953,2.11965 -50.49335,12.00465 -75.74152,18.00848 -25.24818,6.00382 -49.43403,-2.47276 -74.15254,-3.70763 -24.71852,-1.23488 -48.0216,-12.35976 -72.0339,-18.53814 -24.0123,-6.17838 -78.03573,-60.73546 -117.05509,-91.10169 -39.01936,-30.36623 -13.41708,-30.72134 -20.12712,-46.08051 -6.71004,-15.35917 2.47276,-14.4784 3.70763,-21.7161 1.23488,-7.2377 15.18462,-15.53773 22.77543,-23.30509 7.5908,-7.76736 23.30608,-10.59422 34.95762,-15.88983 C 325.21086,111.22981 354.52077,93.572445 375,82.097456 395.47923,70.622467 400.07162,65.500411 412.60593,57.203388 425.14024,48.906366 446.15213,30.36623 462.92373,16.949151 479.69533,3.5320719 484.81738,5.6487159 495.76271,-1.5829081e-6 506.70804,-5.6487191 516.59705,-0.70721627 527.01271,-1.0593236 537.42838,-1.411431 547.14083,7.76736 557.20339,12.182202 c 10.06256,4.414842 49.78914,24.716514 74.6822,37.076271 C 656.77866,61.61823 684,71 684,71 l -96,141 c 0,0 -21.90159,-19.16889 -32.01482,-27.71958 -10.11323,-8.5507 -43.81865,-28.34021 -65.72947,-42.50881 -21.91082,-14.1686 -35.07969,-2.12332 -52.62103,-3.18347 -17.54134,-1.06016 -17.72661,11.48449 -26.59141,17.22823 -8.8648,5.74375 13.23429,44.5677 19.84993,66.85305 6.61564,22.28535 27.34146,1.87164 41.01069,2.80896 13.66923,0.93732 134.33131,-28.96442 201.49547,-43.44512 67.16416,-14.48071 93.38304,13.48196 140.07306,20.22445 46.69002,6.74248 69.41332,48.93718 104.11848,73.40727 34.70516,24.47009 45.4436,92.3823 68.16389,138.57495 22.72031,46.19265 -2.99521,107.86275 -4.49432,161.79562 -1.49911,53.93288 -51.43403,84.3924 -77.15254,126.59009 -25.71851,42.1977 -60.17298,40.94728 -108.6128,71.16011 -48.43981,30.21284 -61.17173,34.95485 -73.40727,42.69607 -12.23555,7.74122 -20.72282,3.74427 -27.71499,6.74149 -6.99217,2.99721 -12.73292,-3.24691 -22.47162,-5.99244 C 662.16255,814.48534 565.53661,782.27403 512.3528,764.79711 459.16898,747.32019 233.4561,746.81882 166.28994,731.08969 99.123788,715.36056 71,828 71,828 Z"
     sodipodi:nodetypes="csssssssssssssssscsssssssssccsssscssssssssscssscc" />
  <path
     style="fill:#ff0000;stroke:none;stroke-width:1px;stroke-linecap:butt;stroke-linejoin:miter;stroke-opacity:1;fill-opacity:1"
     d="m 322.09313,231.47081 c -29.31921,-8.05174 -61.0062,-7.25956 -89.88645,2.24716 -35.82795,11.79374 -66.89026,36.93272 -86.89024,68.91295 -15.93784,25.48481 -25.02033,55.44578 -24.44032,85.49831 0.58,30.05252 11.05498,60.06071 30.43275,83.03879 24.48141,29.02996 61.16169,45.23044 98.12604,53.93187 63.2856,14.89746 129.95935,10.35664 193.25588,-4.49432 21.1678,-4.9665 42.12232,-11.0776 63.64993,-14.12785 21.52761,-3.05025 43.95982,-2.91568 64.43827,4.39015 10.38288,3.70417 20.22456,9.2985 27.90243,17.20896 7.67788,7.91045 13.08212,18.25064 14.04458,29.23238 0.76138,8.68741 -1.24414,17.45473 -4.67238,25.47334 -3.42823,8.01861 -8.24297,15.36486 -13.30491,22.4661 -14.19376,19.91197 -30.55005,38.28135 -48.68849,54.68093 l 88.38834,35.95458 c 25.08167,-31.44559 51.06303,-62.17354 77.9016,-92.13362 17.69699,-19.75527 36.05228,-39.59891 47.19039,-63.66957 13.70124,-29.60988 15.21471,-64.87794 2.99621,-95.12983 -8.57642,-21.23443 -23.82839,-39.86777 -43.44512,-51.68471 -24.18218,-14.56713 -53.4173,-18.2432 -81.64686,-17.97729 -53.56965,0.50461 -106.04132,13.91768 -158.79941,23.22066 -24.0798,4.24606 -48.4394,7.65373 -72.8852,7.1355 -24.44581,-0.51822 -49.10866,-5.09876 -70.93312,-16.12414 -18.05272,-9.11996 -33.99102,-22.69623 -44.94323,-39.69985 -5.41575,-8.40811 -9.62772,-17.70143 -11.39101,-27.54609 -1.7633,-9.84466 -0.97979,-20.27378 3.15142,-29.382 5.38399,-11.87028 16.53008,-20.96189 29.24018,-23.85055 12.7101,-2.88866 26.69086,0.4923 36.67655,8.86947 z"
     id="path1471"
     inkscape:connector-curvature="0"
     inkscape:path-effect="#path-effect1473"
     inkscape:original-d="m 322.09313,231.47081 c 0,0 -59.9233,1.4971 -89.88645,2.24716 -29.96316,0.75005 -57.92583,45.94096 -86.89024,68.91295 -28.96442,22.97198 3.99595,112.35707 5.99243,168.5371 1.99647,56.18004 65.41836,35.95358 98.12604,53.93187 32.70769,17.9783 128.83826,-2.99721 193.25588,-4.49432 64.41763,-1.49711 85.39314,-6.4928 128.0882,-9.7377 42.69507,-3.2449 27.96568,30.95989 41.94701,46.44134 13.98134,15.48144 -11.98386,31.95863 -17.97729,47.93944 -5.99343,15.98081 -48.68849,54.68093 -48.68849,54.68093 l 88.38834,35.95458 c 0,0 51.9354,-61.42341 77.9016,-92.13362 25.9662,-30.7102 31.46126,-42.44738 47.19039,-63.66957 15.72913,-21.22219 1.99847,-63.42089 2.99621,-95.12983 0.99774,-31.70895 -28.96241,-34.45748 -43.44512,-51.68471 -14.4827,-17.22724 -54.43024,-11.98586 -81.64686,-17.97729 -27.21662,-5.99144 -105.86527,15.47944 -158.79941,23.22066 -52.93413,7.74123 -95.87788,-5.99343 -143.81832,-8.98864 -47.94045,-2.99522 -29.96116,-26.46757 -44.94323,-39.69985 -14.98208,-13.23229 -5.49206,-37.95306 -8.23959,-56.92809 -2.74753,-18.97503 65.91673,-14.98108 65.91673,-14.98108 z"
     sodipodi:nodetypes="cssssssssccssssssssscc" />
</svg>
