<?xml version="1.0" encoding="utf-8"?>
<!-- Generator: Adobe Illustrator 21.1.0, SVG Export Plug-In . SVG Version: 6.00 Build 0)  -->
<svg version="1.1" id="Layer_1" xmlns="http://www.w3.org/2000/svg" xmlns:xlink="http://www.w3.org/1999/xlink" x="0px" y="0px"
	 viewBox="0 0 1920 1080" style="enable-background:new 0 0 1920 1080;" xml:space="preserve">
<style type="text/css">
	.st0{fill:#FF0000;}
</style>
<path class="st0" d="M644.1,843.6c33.2-27.8,83.9-64.3,152.4-93.5c36.1-15.4,97.3-40.9,180.8-45.7c93.1-5.4,168.7,17.5,215.4,36.6
	c36.9-40,73.8-79.9,110.7-119.9c13.9,10.5,27.8,21,41.7,31.5c-63.3,68.4-126.7,136.8-190,205.2c-90.7-25.2-168.7-40.3-228.6-49.8
	c-97.1-15.4-143.4-15.5-191,5.1c-35.2,15.2-63.2,35.9-78.5,51.8C651.6,857.5,649.5,851.1,644.1,843.6z"/>
<path class="st0" d="M714.2,570.4c9.6-17.8,21.5-45.1,26.4-80.3c3.2-22.6,2.6-42.4,1-57.9c12.3,6.7,34.8,17,65,19.3
	c28.4,2.2,51-3.7,64-8.1c-5,18.4-9.7,40.6-12.2,66c-2.5,25-2.3,47.3-1,66c-18.9-4.8-43-9.1-71.1-10.2
	C758,564.3,733.4,566.9,714.2,570.4z"/>
<rect x="491" y="500.3" transform="matrix(0.7661 -0.6427 0.6427 0.7661 -119.4407 712.3364)" class="st0" width="855.9" height="40"/>
<rect x="543.9" y="555.1" transform="matrix(0.7661 -0.6427 0.6427 0.7661 -142.3443 759.1224)" class="st0" width="855.9" height="40"/>
<path class="st0" d="M804.6,229c36,21.2,94.2,49.2,170.7,61c112.2,17.3,202.3-9.9,245.9-26.4c-31.8,25.7-63.7,51.5-95.5,77.2
	c-26.7,1.4-58.4,5.1-93.5,13.2c-39.5,9.2-73,21.6-99.6,33.5c-29.5-15.2-71.4-33.4-123.9-45.7c-63.7-14.9-110.8-26-150.4,0
	C629,361,606.3,399,612.6,432.2c0.7,3.5,7.1,35,28.4,38.6c16.6,2.8,30.8-13.2,32.5-15.2c4.7,7.5,9.5,14.9,14.2,22.4
	c-8,9.4-22.2,22.4-39.6,22.4c-32.5-0.2-60.4-45.8-62-83.3c-2.4-56.9,55.7-99.7,95.5-129C729.3,252.9,775.7,236.8,804.6,229z"/>
</svg>
