<?xml version="1.0" encoding="utf-8"?>
<!-- Generator: Adobe Illustrator 21.1.0, SVG Export Plug-In . SVG Version: 6.00 Build 0)  -->
<svg version="1.1" id="Layer_1" xmlns="http://www.w3.org/2000/svg" xmlns:xlink="http://www.w3.org/1999/xlink" x="0px" y="0px"
	 viewBox="0 0 1920 1080" style="enable-background:new 0 0 1920 1080;" xml:space="preserve">
<style type="text/css">
	.st0{fill:#FF0000;}
</style>
<path class="st0" d="M786.8,394.7l225.2-217.3c0,0,73.3,43.2,95.6,85.1s53,161.7,52.4,269.7s-7.2,172.2-36.7,204.2
	c-29.5,32.1-157.1,106.1-157.1,106.1L708.2,733.8l153.2-102.1c0,0,137.5,85.8,153.2,75.9c15.7-9.8,15.1-311.6-1.3-335.2
	c-16.4-23.6-81.8-55.6-104.7-43.2L786.8,394.7z"/>
<path class="st0" d="M671.5,303.1c0,0,74.6,77.9,77.2,121.8s0,540.7,0,540.7s147.9,47.8,183.3,35.4c35.4-12.4,47.8-17.7,39.3-41.9
	c-8.5-24.2-55-20.9-74.6-45.8c-19.6-24.9,0-601,0-601L793.3,193.1L671.5,303.1z"/>
</svg>
